<?xml version="1.0" encoding="UTF-8" standalone="no"?>
<svg xmlns="http://www.w3.org/2000/svg" xmlns:xlink="http://www.w3.org/1999/xlink" width="93.510mm" height="20.281mm" viewBox="43.227730 -270.089417 93.510338 20.280823">
    <path transform="matrix(1,0,0,-1,0,0)" style="stroke:none;fill:#000000;fill-rule:evenodd" d="M110.934357,250.25238C113.993484,250.415894,116.804733,251.982605,118.556778,254.495636C120.30883,257.008667,120.806641,260.188263,119.90213,263.115173C118.647888,267.072449,115.079071,269.842834,110.934357,270.076599C106.948959,270.270874,103.233406,268.067047,101.49295,264.476501C99.638489,260.682129,100.411484,256.126892,103.413849,253.156677C105.392303,251.161453,108.128395,250.104828,110.934357,250.25238zM109.979767,251.587341C107.426353,251.712906,105.063019,252.973099,103.535919,255.023376C100.696083,258.826355,101.477211,264.211365,105.280548,267.05072C109.083733,269.890198,114.468544,269.108887,117.307892,265.305603C120.147354,261.502411,119.366043,256.117615,115.562775,253.278259C113.959419,252.074127,111.981796,251.475159,109.979767,251.587341z"/>
    <path transform="matrix(1,0,0,-1,0,0)" style="stroke:none;fill:#000000;fill-rule:evenodd" d="M73.27935,249.824249C75.705963,249.968216,77.996445,250.993134,79.720757,252.706573C80.182907,253.163193,80.597008,253.66597,80.956596,254.207062C81.064468,254.503052,80.972572,254.834183,80.727592,255.032257C80.465294,255.222168,80.104614,255.199844,79.867729,254.979034L79.755424,254.870148L79.44146,254.44632C78.038437,252.6474,75.976746,251.481644,73.712158,251.205597C71.447563,250.92955,69.166199,251.565918,67.372124,252.975128C65.445221,254.482178,64.236534,256.725891,64.038139,259.164093L80.970268,259.164093C81.233215,259.128021,81.486267,259.279846,81.578178,259.528839C81.611885,259.661011,81.625542,259.797394,81.618706,259.933624C81.665184,263.496399,79.805359,266.812927,76.741264,268.631378C73.225266,270.686188,68.764648,270.117218,65.877007,267.245636C62.775822,264.3526,61.807335,259.83313,63.450737,255.92337C65.107468,252.016144,69.042778,249.574097,73.27935,249.824249zM64.038139,260.501007C64.300552,263.701141,66.266129,266.510132,69.182671,267.853058C71.942116,269.040497,75.139366,268.520599,77.380424,266.52005C78.535576,265.503326,79.386139,264.186066,79.837456,262.714874C80.071442,261.996765,80.220566,261.253784,80.281792,260.501007L64.038139,260.501007z"/>
    <path transform="matrix(1,0,0,-1,0,0)" style="stroke:none;fill:#000000;fill-rule:evenodd" d="M91.524162,250.29187L91.730965,250.367554C91.864548,250.442093,91.970963,250.547333,92.03804,250.671265L100.970985,269.102417C101.150955,269.400269,101.031494,269.766937,100.697525,269.941772C100.429626,270.092133,100.083603,270.09613,99.811066,269.952026C99.673828,269.873108,99.567459,269.760651,99.505707,269.629272L91.282043,252.656128L83.011086,269.629272C82.934738,269.855438,82.718262,270.027435,82.449356,270.075562C82.136444,270.094635,81.83371,269.980499,81.638672,269.769897C81.499619,269.568481,81.465912,269.326202,81.545807,269.102417L90.525467,250.671265C90.644844,250.407349,90.952972,250.242493,91.282043,250.266479L91.524162,250.29187z"/>
    <path transform="matrix(1,0,0,-1,0,0)" style="stroke:none;fill:#000000;fill-rule:evenodd" d="M53.244835,270.036316L53.451637,269.960632C53.585217,269.886078,53.691639,269.780853,53.758709,269.656921L62.691658,251.225769C62.871632,250.927933,62.752171,250.561264,62.418201,250.386414C62.150299,250.236053,61.804276,250.232056,61.531742,250.37616C61.394505,250.455093,61.288136,250.56752,61.226379,250.698914L53.002712,267.672058L44.731758,250.698914C44.655407,250.472748,44.438931,250.300766,44.170029,250.252625C43.857113,250.233551,43.554382,250.347702,43.359341,250.558289C43.220291,250.759705,43.186584,251.001984,43.266479,251.225769L52.246143,269.656921C52.365517,269.920837,52.673645,270.085693,53.002712,270.061707L53.244835,270.036316z"/>
    <path transform="matrix(1,0,0,-1,0,0)" style="stroke:none;fill:#000000;fill-rule:evenodd" d="M130.62471,250.05275C131.932053,250.13855,133.191986,250.539474,134.278503,251.215454C135.182938,251.778244,135.897171,252.564667,136.339294,253.484543C136.850693,254.56041,136.871796,255.780304,136.397842,256.870636C136.062057,257.494446,135.598862,258.052399,135.033478,258.514099C134.237808,259.158813,133.343109,259.691284,132.378311,260.09436L129.887741,261.166138C128.848373,261.588654,127.828789,262.051544,126.831818,262.553528C126.145622,262.887543,125.520218,263.318695,124.978653,263.831116C124.61467,264.157654,124.36821,264.579529,124.272705,265.03949C124.097511,266.172455,124.674377,267.292938,125.737129,267.883911C126.44043,268.283905,127.22493,268.546875,128.042587,268.656738C129.012238,268.816559,130.004059,268.826996,130.977432,268.687653C131.617416,268.591827,132.240997,268.418884,132.832092,268.173218C133.435226,267.905212,133.972824,267.526733,134.412094,267.060791L134.521149,266.975922C134.788132,266.786011,135.166351,266.805878,135.408218,267.022522C135.545517,267.131287,135.627991,267.287598,135.635849,267.454376C135.643707,267.621155,135.576294,267.783478,135.449738,267.902832C134.701401,268.701141,133.735657,269.300598,132.651978,269.639496C131.306198,270.051361,129.878433,270.183075,128.470856,270.025208C127.184219,269.938263,125.943298,269.548065,124.867081,268.892029C123.385132,267.948456,122.636856,266.294891,122.951874,264.65976C123.079094,264.125275,123.348541,263.628296,123.73587,263.213776C124.341888,262.558441,125.066292,262.004974,125.87722,261.577698C126.603416,261.18866,127.351616,260.835663,128.118622,260.520203C128.885284,260.194122,129.647659,259.873505,130.417084,259.553589L131.50676,259.080231C132.494446,258.664001,133.4048,258.106903,134.204468,257.429382C134.53653,257.142792,134.816467,256.808777,135.033478,256.440186C135.291962,255.96283,135.38472,255.423599,135.299149,254.89592C135.152496,253.93576,134.603012,253.067429,133.768677,252.477341C132.8172,251.811264,131.674255,251.41864,130.482117,251.348328C129.058075,251.250122,127.628723,251.459793,126.307991,251.960587C125.248062,252.38327,124.312485,253.032684,123.578773,253.855026L123.471207,253.941315C123.265091,254.105225,122.970413,254.133926,122.731735,254.01329C122.457603,253.852127,122.323158,253.549255,122.396027,253.25708C122.426765,253.179184,122.476402,253.10881,122.541122,253.0513C123.962074,251.437775,126.004234,250.392502,128.240707,250.133957C129.030167,250.030655,129.829132,250.003433,130.62471,250.05275z"/>
</svg>
