<?xml version="1.0" encoding="UTF-8" standalone="no"?>
<svg xmlns="http://www.w3.org/2000/svg" xmlns:xlink="http://www.w3.org/1999/xlink" width="100.000mm" height="100.000mm" viewBox="15.999996 -115.999985 100.000000 100.000000">
    <path transform="matrix(1,0,0,-1,0,0)" style="stroke:none;fill:#000000;fill-rule:evenodd" d="M116,65.999985C116,38.385746,93.614243,15.999981,66,15.999981C38.385761,15.999981,15.999996,38.385746,15.999996,65.999985C15.999996,93.614227,38.385761,115.999985,66,115.999985C93.614243,115.999985,116,93.614227,116,65.999985z"/>
    <path transform="matrix(1,0,0,-1,0,0)" style="stroke:none;fill:#b4b4b4;fill-rule:evenodd" d="M60.952286,86.714539C60.173267,86.714539,59.453438,86.298943,59.063927,85.624298C58.674438,84.949661,58.674438,84.118462,59.063927,83.443817L80.465256,46.375641C80.854767,45.700996,81.574593,45.2854,82.353615,45.2854C83.132637,45.2854,83.852463,45.700996,84.241974,46.375641L105.64328,83.443832C106.032784,84.118477,106.032784,84.949669,105.64328,85.624313C105.253777,86.298958,104.533936,86.714554,103.754929,86.714554L60.952286,86.714539z"/>
    <path transform="matrix(1,0,0,-1,0,0)" style="stroke:none;fill:#b4b4b4;fill-rule:evenodd" d="M71.047699,45.285419C71.826721,45.285419,72.546555,45.701019,72.936058,46.37566C73.325554,47.050304,73.325554,47.8815,72.936058,48.556141L51.534733,85.624321C51.145222,86.298965,50.425392,86.714561,49.646374,86.714561C48.867355,86.714561,48.147526,86.298965,47.758015,85.624321L26.356712,48.556129C25.967203,47.881489,25.967203,47.050293,26.356712,46.375648C26.746214,45.701008,27.466051,45.285408,28.245062,45.285408L71.047699,45.285419z"/>
</svg>
